<?xml version="1.0" encoding="utf-8"?>
<!-- Generator: Adobe Illustrator 27.5.0, SVG Export Plug-In . SVG Version: 6.00 Build 0)  -->
<svg version="1.1" xmlns="http://www.w3.org/2000/svg" xmlns:xlink="http://www.w3.org/1999/xlink" x="0px" y="0px"
	 viewBox="0 0 900 600" style="enable-background:new 0 0 900 600;" xml:space="preserve">
<g id="Layer_2">
	<g>
		<rect style="fill:none;" width="900" height="600"/>
	</g>
	<g style="opacity:0;">
		<rect style="fill:none;" width="900" height="600"/>
	</g>
</g>
<g id="Layer_1">
	<g>
		<g>
			<rect x="151.667" y="552.358" style="fill:#5E3B3B;" width="643.02" height="2.557"/>
		</g>
	</g>
	<g>
		<g>
			<g>
				<path style="fill:#C4E8E8;" d="M219.287,490.552c-60.07-17.996-149.297-115.56-97.566-196.225
					c43.755-68.227,115.043-48.545,183.989-97.345c39.499-27.958,46.695-54.712,75.174-83.809
					c42.576-43.498,96.858-70.689,157.106-67.496C894.276,51.325,954.499,654.024,219.287,490.552z"/>
			</g>
		</g>
		<g>
			<g>
				<g>
					<path style="fill:#53BC91;" d="M618.342,383.136l12.583,5.732c0.521-0.527,1.047-1.04,1.583-1.526
						c0.776-0.692,1.581-1.348,2.42-1.932c8.338-5.821,19.743-8.358,28.773-3.682c5.937,3.076,10.605,9.012,17.226,9.848
						c10.841,1.365,18.136-11.27,28.542-14.598c11.849-3.784,25.651,5.168,36.762-0.424c8.899-4.487,11.048-16.308,8.231-26.11
						c-0.382-1.332-0.854-2.614-1.407-3.844c-4.989-11.005-15.33-19.436-27.124-22.089s-24.754,0.534-33.977,8.346
						c-9.734,8.242-16.098,21.571-28.438,24.805c-5.962,1.566-12.33,0.373-18.41,1.435c-5.23,0.922-10.815,4.277-15.735,8.958
						c-3.965,3.745-7.501,8.349-10.106,13.254C618.943,381.915,618.631,382.526,618.342,383.136z"/>
				</g>
			</g>
			<g>
				<g>
					<g>
						<g>
							<path style="fill:#FFFFFF;" d="M622.314,385.338l-1.447-1.446c0.527-0.528,1.064-1.052,1.615-1.557
								c1.626-1.526,3.376-2.997,5.193-4.363c4.804-3.613,10.369-5.92,15.752-8.151c0.731-0.304,1.462-0.606,2.193-0.913
								c7.913-3.323,15.299-2.311,22.438-1.333c6.949,0.952,14.133,1.937,21.864-1.121c5.666-2.241,10.261-6.272,14.704-10.171
								c5.369-4.71,10.922-9.581,18.387-11.326c8.535-2.003,22.205,1.613,31.743,4.506l-0.593,1.957
								c-5.367-1.628-21.697-6.582-30.684-4.472c-6.968,1.629-12.086,6.119-17.504,10.873c-4.575,4.013-9.306,8.163-15.302,10.536
								c-8.228,3.255-15.683,2.233-22.894,1.245c-7.183-0.984-13.97-1.917-21.369,1.191c-0.734,0.309-1.468,0.612-2.201,0.917
								c-5.507,2.283-10.71,4.44-15.308,7.897c-1.757,1.322-3.451,2.744-5.031,4.227
								C623.335,384.328,622.82,384.831,622.314,385.338z"/>
						</g>
					</g>
				</g>
			</g>
			<g>
				<g>
					<path style="fill:#53BC91;" d="M632.026,299.936c0.637,9.753,0.699,21.851-7.916,26.479c-3.538,1.895-7.815,1.958-11.416,3.745
						c-6.11,3.027-8.896,10.4-8.979,17.217c-0.105,8.471,0.729,18.358,1.672,27.61c0.088,0.793,0.167,1.582,0.25,2.362l21.75,9.908
						c0.112-0.691,0.21-1.399,0.299-2.111c0.242-2.036,0.43-4.176,0.603-6.356c0.292-3.553,0.571-7.224,1.081-10.735
						c1.537-10.504,5.211-19.507,17.861-19.273c5.45,0.1,10.883,3.418,16.088,1.811c8.219-2.549,8.399-13.897,12.267-21.574
						c3.62-7.206,11.259-11.616,19.036-13.737c7.786-2.117,15.934-2.339,23.914-3.502c17.582-2.577,34.903-10.206,46.446-23.704
						c11.553-13.494,16.359-33.32,9.523-49.717c-6.827-16.393-26.427-27.222-43.337-21.777
						c-18.055,5.811-29.364,27.035-48.255,28.712c-7.062,0.626-14.139-1.699-21.191-1.045
						c-11.635,1.094-21.285,10.386-25.783,21.171C631.451,276.209,631.279,288.279,632.026,299.936z"/>
				</g>
			</g>
			<g>
				<g>
					<g>
						<g>
							<path style="fill:#FFFFFF;" d="M615.514,378.686l-1.977-0.52c0.72-2.74,1.318-5.71,1.95-8.855
								c2.09-10.394,4.46-22.174,12.328-28.21c17.424-13.367,21.134-26.205,24.721-38.62c3.409-11.797,6.628-22.94,22.094-31.794
								c4.958-2.844,14.33-3.649,25.181-4.582c25.146-2.162,59.586-5.122,69.798-35.094l1.935,0.66
								c-10.641,31.236-45.85,34.262-71.558,36.471c-10.609,0.912-19.772,1.699-24.339,4.319
								c-14.748,8.443-17.713,18.704-21.147,30.587c-3.507,12.139-7.483,25.898-25.441,39.675
								c-7.258,5.569-9.548,16.949-11.568,26.99C616.853,372.89,616.25,375.89,615.514,378.686z"/>
						</g>
					</g>
				</g>
			</g>
			<g>
				<g>
					<g>
						<g>
							<path style="fill:#5E3B3B;" d="M718.685,312.792l-0.297-2.024c19.053-2.793,35.325-11.088,45.818-23.357l1.554,1.329
								C754.945,301.385,738.227,309.927,718.685,312.792z"/>
						</g>
					</g>
				</g>
			</g>
			<g>
				<g>
					<g>
						<g>
							<path style="fill:#5E3B3B;" d="M628.182,388.742l-23.498-10.705l-0.312-2.937c-0.841-8.241-1.789-18.832-1.678-27.735
								c0.079-6.513,2.629-14.694,9.546-18.121c1.846-0.916,3.836-1.398,5.759-1.864c2.016-0.489,3.919-0.95,5.629-1.866
								l0.965,1.803c-1.939,1.039-4.06,1.553-6.112,2.05c-1.897,0.46-3.69,0.895-5.333,1.709
								c-6.091,3.017-8.338,10.406-8.409,16.314c-0.11,8.8,0.833,19.315,1.666,27.493l0.19,1.777l19.981,9.103
								c0.033-0.247,0.065-0.496,0.096-0.744c0.262-2.201,0.457-4.529,0.598-6.31l0.074-0.901c0.268-3.271,0.544-6.652,1.015-9.9
								c1.387-9.481,4.774-20.324,18.726-20.152c0.055,0.001,0.109,0.001,0.165,0.003c2.29,0.042,4.544,0.615,6.725,1.168
								c3.181,0.808,6.186,1.571,9.044,0.689c5.158-1.6,6.885-7.179,8.712-13.085c0.839-2.714,1.708-5.519,2.943-7.972l1.826,0.92
								c-1.159,2.301-2.001,5.023-2.817,7.657c-1.903,6.152-3.872,12.514-10.061,14.434c-3.405,1.054-6.836,0.182-10.152-0.66
								c-2.067-0.525-4.206-1.068-6.258-1.106c-0.05-0.001-0.1-0.002-0.149-0.002c-12.301-0.151-15.336,9.212-16.681,18.402
								c-0.462,3.182-0.735,6.532-1,9.772l-0.073,0.898c-0.143,1.797-0.341,4.151-0.607,6.393c-0.091,0.731-0.191,1.453-0.305,2.155
								L628.182,388.742z"/>
						</g>
					</g>
				</g>
			</g>
			<g>
				<g>
					<g>
						<g>
							<path style="fill:#5E3B3B;" d="M631.005,300.002c-0.696-10.877-0.768-23.538,3.99-34.975
								c5.087-12.198,15.539-20.754,26.631-21.796c3.65-0.34,7.312,0.099,10.854,0.52c3.408,0.406,6.934,0.827,10.342,0.524
								l0.181,2.038c-3.622,0.321-7.252-0.112-10.765-0.531c-3.436-0.409-6.988-0.832-10.422-0.515
								c-10.346,0.973-20.134,9.038-24.933,20.546c-4.596,11.048-4.518,23.416-3.837,34.058L631.005,300.002z"/>
						</g>
					</g>
				</g>
			</g>
			<g>
				<g>
					<g>
						<g>
							<path style="fill:#5E3B3B;" d="M777.641,264.513l-2.003-0.413c1.836-8.917,1.118-17.682-2.077-25.348
								c-6.917-16.607-26.186-26.314-42.08-21.197c-7.907,2.545-14.65,8.254-21.171,13.775c-2.394,2.027-4.87,4.124-7.364,6.03
								l-1.242-1.625c2.455-1.875,4.911-3.954,7.286-5.965c6.673-5.65,13.573-11.492,21.865-14.162
								c16.868-5.43,37.287,4.809,44.595,22.357C778.804,246.011,779.562,255.19,777.641,264.513z"/>
						</g>
					</g>
				</g>
			</g>
			<g>
				<g>
					<g>
						<g>
							<path style="fill:#5E3B3B;" d="M680.798,392.59c-4.458-0.563-8.049-3.271-11.522-5.891c-1.938-1.462-3.941-2.973-6.047-4.064
								l0.941-1.816c2.259,1.17,4.332,2.734,6.337,4.247c3.409,2.571,6.63,4.999,10.547,5.495L680.798,392.59z"/>
						</g>
					</g>
				</g>
			</g>
			<g>
				<g>
					<g>
						<g>
							<path style="fill:#5E3B3B;" d="M746.691,377.466l-0.92-1.827c8.526-4.299,10.332-15.788,7.708-24.914
								c-0.363-1.267-0.82-2.514-1.357-3.707c-4.847-10.692-14.969-18.936-26.415-21.511c-11.457-2.574-24.132,0.54-33.092,8.129
								l-1.321-1.56c9.439-7.995,22.796-11.28,34.861-8.564c12.059,2.712,22.724,11.397,27.831,22.664
								c0.578,1.284,1.068,2.624,1.459,3.984C758.3,360.095,756.211,372.665,746.691,377.466z"/>
						</g>
					</g>
				</g>
			</g>
		</g>
		<g>
			<g>
				<g>
					<path style="fill:#53BC91;" d="M402.467,296.797c8.542-0.48,19.133-0.439,23.116,7.138c1.631,3.112,1.652,6.856,3.188,10.023
						c2.601,5.372,9.033,7.869,15,7.996c7.414,0.159,16.076-0.493,24.182-1.245c0.695-0.071,1.386-0.134,2.069-0.2l8.845-18.96
						c-0.604-0.104-1.223-0.195-1.846-0.278c-1.78-0.228-3.652-0.409-5.559-0.578c-3.108-0.284-6.319-0.557-9.388-1.031
						c-9.183-1.429-17.034-4.716-16.73-15.787c0.131-4.77,3.078-9.5,1.713-14.069c-2.167-7.215-12.098-7.462-18.788-10.909
						c-6.28-3.226-10.079-9.948-11.874-16.772c-1.792-6.832-1.921-13.966-2.876-20.961c-2.117-15.411-8.658-30.633-20.382-40.845
						c-11.72-10.219-29.037-14.584-43.445-8.729c-14.404,5.846-24.038,22.918-19.405,37.763
						c4.944,15.85,23.433,25.918,24.752,42.468c0.492,6.187-1.599,12.363-1.083,18.542c0.865,10.194,8.923,18.714,18.328,22.737
						C381.692,297.112,392.257,297.358,402.467,296.797z"/>
				</g>
			</g>
			<g>
				<g>
					<g>
						<g>
							<path style="fill:#FFFFFF;" d="M471.271,311.874l-0.471,1.727c-2.393-0.652-4.988-1.199-7.736-1.777
								c-9.082-1.912-19.376-4.08-24.596-11.015c-11.563-15.358-22.772-18.707-33.611-21.945
								c-10.3-3.077-20.028-5.983-27.656-19.592c-2.45-4.362-3.081-12.572-3.811-22.079c-1.693-22.029-4.012-52.2-30.167-61.376
								l0.593-1.689c27.258,9.562,29.628,40.406,31.359,62.928c0.714,9.294,1.331,17.321,3.588,21.339
								c7.274,12.977,16.233,15.653,26.607,18.753c10.598,3.166,22.611,6.756,34.529,22.584c4.817,6.397,14.761,8.492,23.535,10.34
								C466.207,310.656,468.829,311.207,471.271,311.874z"/>
						</g>
					</g>
				</g>
			</g>
			<g>
				<g>
					<g>
						<g>
							<path style="fill:#5E3B3B;" d="M414.406,221.041l-1.774,0.244c-2.294-16.701-9.426-31.01-20.083-40.292l1.176-1.35
								C404.708,189.209,412.052,203.911,414.406,221.041z"/>
						</g>
					</g>
				</g>
			</g>
			<g>
				<g>
					<g>
						<g>
							<path style="fill:#976063;" d="M480.174,300.865l-9.557,20.485l-2.574,0.25c-7.221,0.671-16.499,1.417-24.292,1.249
								c-5.701-0.121-12.842-2.417-15.787-8.5c-0.787-1.623-1.194-3.368-1.586-5.056c-0.412-1.768-0.801-3.438-1.589-4.942
								l1.586-0.83c0.894,1.706,1.327,3.566,1.746,5.366c0.388,1.665,0.754,3.238,1.454,4.682c2.593,5.355,9.043,7.381,14.214,7.49
								c7.702,0.166,16.914-0.576,24.08-1.241l1.557-0.152l8.126-17.419c-0.216-0.031-0.433-0.061-0.651-0.09
								c-1.925-0.247-3.961-0.436-5.519-0.573l-0.788-0.072c-2.861-0.26-5.819-0.529-8.658-0.966
								c-8.288-1.289-17.753-4.34-17.493-16.552c0.001-0.048,0.002-0.095,0.004-0.144c0.055-2.004,0.574-3.973,1.076-5.877
								c0.732-2.778,1.424-5.403,0.675-7.911c-1.36-4.528-6.229-6.084-11.385-7.73c-2.369-0.756-4.818-1.539-6.955-2.64l0.82-1.592
								c2.005,1.033,4.381,1.792,6.68,2.526c5.37,1.715,10.924,3.489,12.555,8.922c0.896,2.989,0.105,5.985-0.658,8.881
								c-0.476,1.805-0.968,3.673-1.017,5.469c-0.001,0.044-0.002,0.087-0.003,0.13c-0.229,10.767,7.942,13.497,15.976,14.748
								c2.782,0.429,5.712,0.695,8.546,0.953l0.786,0.071c1.572,0.139,3.631,0.331,5.591,0.582c0.639,0.085,1.27,0.178,1.884,0.284
								L480.174,300.865z"/>
						</g>
					</g>
				</g>
			</g>
			<g>
				<g>
					<g>
						<g>
							<path style="fill:#5E3B3B;" d="M402.516,297.691c-9.527,0.523-20.611,0.486-30.584-3.77
								c-10.638-4.549-18.044-13.767-18.869-23.484c-0.269-3.198,0.144-6.4,0.541-9.497c0.383-2.98,0.779-6.063,0.541-9.049
								l1.785-0.142c0.252,3.173-0.156,6.347-0.55,9.419c-0.385,3.004-0.784,6.111-0.533,9.119
								c0.77,9.065,7.752,17.696,17.788,21.988c9.635,4.111,20.462,4.141,29.783,3.628L402.516,297.691z"/>
						</g>
					</g>
				</g>
			</g>
			<g>
				<g>
					<g>
						<g>
							<path style="fill:#5E3B3B;" d="M372.61,169.05l-0.378,1.75c-7.791-1.678-15.47-1.119-22.205,1.617
								c-14.592,5.923-23.241,22.714-18.888,36.667c2.165,6.941,7.109,12.889,11.891,18.641c1.755,2.112,3.571,4.296,5.22,6.494
								l-1.433,1.075c-1.622-2.164-3.423-4.33-5.164-6.425c-4.893-5.886-9.953-11.972-12.224-19.252
								c-4.62-14.809,4.504-32.602,19.924-38.859C356.424,167.886,364.465,167.296,372.61,169.05z"/>
						</g>
					</g>
				</g>
			</g>
		</g>
		<g>
			<g>
				<g>
					<g>
						<g>
							<path style="fill:#5E3B3B;" d="M633.604,168.92v374.562c0,5.23-4.232,9.473-9.473,9.473H440.019
								c-5.23,0-9.473-4.243-9.473-9.473V168.92c0-5.241,4.243-9.473,9.473-9.473h184.112
								C629.372,159.447,633.604,163.679,633.604,168.92z"/>
						</g>
					</g>
				</g>
			</g>
		</g>
		<g>
			<g>
				<path style="fill:#CE4D5A;" d="M625.017,168.92v374.562c0,5.23-4.232,9.473-9.473,9.473H431.432
					c-5.23,0-9.473-4.243-9.473-9.473V168.92c0-5.241,4.243-9.473,9.473-9.473h184.112
					C620.785,159.447,625.017,163.679,625.017,168.92z"/>
			</g>
		</g>
		<g>
			<g>
				<g>
					<g>
						<g>
							<path style="fill:#FFFFFF;" d="M615.331,200.221V511.28c0,6.335-4.806,11.47-10.735,11.47H442.533
								c-5.929,0-10.735-5.135-10.735-11.47V200.221c0-6.335,4.806-11.47,10.735-11.47h162.063
								C610.525,188.751,615.331,193.887,615.331,200.221z"/>
						</g>
					</g>
				</g>
			</g>
		</g>
		<g>
			<path style="fill:#5E3B3B;" d="M548.888,173.061h-51.166c-0.786,0-1.425,0.639-1.425,1.425c0,0.786,0.639,1.425,1.425,1.425
				h51.166c0.786,0,1.425-0.639,1.425-1.425C550.314,173.7,549.674,173.061,548.888,173.061z"/>
		</g>
		<g>
			<g>
				<g>
					<g>
						<g>
							<g>
								<g>
									<path style="fill:#FCB47E;" d="M484.142,528.721l-19.744-19.76l17.173-14.055l16.271,19.492c0,0,1.171,2.611-2.373,9.252
										C491.966,530.217,484.142,528.721,484.142,528.721z"/>
								</g>
							</g>
						</g>
					</g>
				</g>
			</g>
			<g>
				<g>
					<g>
						<g>
							<g>
								<g>
									<g>
										<g>
											<path style="fill:#4F3737;" d="M486.3,543.635l45.349-25.849c1.58-0.901,2.081-2.959,1.061-4.465
												c-0.01-0.015-0.021-0.031-0.031-0.046c-0.232-0.336-0.476-0.66-0.732-0.997c-0.854-1.104-1.864-2.135-2.857-2.562
												c-3.78-1.626-8.686-0.55-17.817,0.739c-5.73,0.804-11.081,0.592-13.497,0.441c-0.773-0.055-1.457,0.458-1.681,1.208
												c-3.976,13.88-10.535,15.15-14.25,12.473c-2.829-2.043-4.29-0.45-4.318,0.637c-0.071,3.394,3.31,11.265,5.102,15.164
												c0.184,0.433,0.356,0.818,0.504,1.131c0.344,0.722,0.552,1.155,0.552,1.155
												C484.067,543.737,485.314,544.186,486.3,543.635z"/>
										</g>
									</g>
								</g>
							</g>
						</g>
					</g>
				</g>
				<g>
					<g>
						<g>
							<g>
								<path style="fill:#FFFFFF;" d="M511.866,511.92c-0.007-0.871-0.136-1.495-0.151-1.561l-0.885,0.193
									c0.01,0.038,0.775,3.753-1.62,5.627l0.557,0.713C511.545,515.503,511.877,513.369,511.866,511.92z"/>
							</g>
						</g>
					</g>
					<g>
						<g>
							<g>
								<path style="fill:#FFFFFF;" d="M516.796,511.471c-0.007-0.871-0.136-1.494-0.151-1.56l-0.885,0.192
									c0.01,0.037,0.775,3.752-1.62,5.626l0.557,0.713C516.476,515.052,516.807,512.92,516.796,511.471z"/>
							</g>
						</g>
					</g>
					<g>
						<g>
							<g>
								<path style="fill:#FFFFFF;" d="M494.516,524.544l-0.693-0.582c-0.057,0.068-5.826,6.799-11.538,3.697l-0.433,0.796
									C488.216,531.91,494.454,524.619,494.516,524.544z"/>
							</g>
						</g>
					</g>
				</g>
				<g>
					<g>
						<g>
							<g>
								
									<rect x="487.661" y="529.684" transform="matrix(0.874 -0.4859 0.4859 0.874 -194.2448 311.1536)" style="fill:#FFFFFF;" width="30.418" height="0.905"/>
							</g>
						</g>
					</g>
					<g>
						<g>
							<g>
								
									<rect x="519.129" y="518.656" transform="matrix(0.8741 -0.4858 0.4858 0.8741 -186.3548 319.3056)" style="fill:#FFFFFF;" width="7.193" height="0.905"/>
							</g>
						</g>
					</g>
				</g>
			</g>
		</g>
		<g>
			<path style="fill:#FBA937;" d="M429.944,466.821c8.488-50.194-70.413-49.079-76.61-52.209
				c-6.412-3.221-60.744-38.399-81.171-72.765c-8.864-14.911-27.664-25.455-46.4-30.129c-10.667-0.225-39.875,2.066-57.997,31.581
				v45.963l47.382,86.779l114.542,29.669l73.406-6.351l23.075-21.584L429.944,466.821z"/>
		</g>
		<g>
			<g>
				<path style="fill:#F98B38;" d="M248.221,422.114c-34.576-8.601-51.311-41.058-51.476-41.385l1.339-0.676
					c0.162,0.32,16.605,32.174,50.499,40.605L248.221,422.114z"/>
			</g>
			<g>
				<path style="fill:#F98B38;" d="M243.178,422.283c-16.358,0-29.693-8.795-29.836-8.891l0.835-1.246
					c0.149,0.1,15.091,9.936,32.526,8.493l0.124,1.494C245.598,422.236,244.379,422.283,243.178,422.283z"/>
			</g>
		</g>
		<g>
			<g>
				<path style="fill:#C4E8E8;" d="M306.044,174.481c7.95-6.451,15.27-14.223,18.713-23.865c3.442-9.642,2.259-21.442-4.995-28.666
					c-5.915-5.89-14.897-7.879-23.192-6.942c-8.295,0.936-16.065,4.456-23.469,8.311c-14.165,7.376-96.556,58.459-67.914,75.283
					C232.76,214.798,284.739,191.767,306.044,174.481z"/>
			</g>
		</g>
		<g>
			<g>
				<g>
					<g>
						<g>
							<g>
								<g>
									
										<ellipse transform="matrix(0.948 -0.3184 0.3184 0.948 -129.3083 219.313)" style="fill:#FFC457;" cx="606.302" cy="505.257" rx="46.737" ry="46.737"/>
								</g>
							</g>
							<g>
								<g>
									<g>
										
											<ellipse transform="matrix(0.8335 -0.5525 0.5525 0.8335 -178.2122 419.0958)" style="fill:#FFE9AB;" cx="606.302" cy="505.257" rx="33.63" ry="33.63"/>
									</g>
								</g>
							</g>
							<g>
								<g>
									<path style="fill:#7C4A4A;" d="M583.724,547.27c-17.888-9.627-28.302-30.102-24.245-51.071
										c2.42-12.507,9.564-23.323,20.119-30.456c10.555-7.133,23.255-9.729,35.762-7.309c5.594,1.081,10.88,3.12,15.701,6.046
										l-0.991,1.633c-4.634-2.82-9.702-4.766-15.072-5.805c-12.007-2.322-24.198,0.17-34.33,7.017
										c-10.132,6.847-16.991,17.231-19.313,29.237c-4.795,24.785,11.467,48.847,36.254,53.645
										c11.375,2.201,23.053,0.042,32.882-6.078l1.01,1.621c-10.24,6.374-22.405,8.623-34.255,6.33
										C592.396,551.142,587.86,549.495,583.724,547.27z"/>
								</g>
							</g>
							<g>
								<g>
									<path style="fill:#7C4A4A;" d="M644.112,534.341l-1.512-1.165c4.37-5.673,7.281-12.14,8.652-19.223
										c2.487-12.859-0.664-26.196-8.648-36.592l1.515-1.162c8.315,10.828,11.599,24.722,9.006,38.117
										C651.698,521.692,648.666,528.43,644.112,534.341z"/>
								</g>
							</g>
						</g>
						<g>
							<g>
								<g>
									<g>
										<g>
											<path style="fill:#FFC457;" d="M598.589,526.368c-2.905-1.11-4.964-2.764-6.178-4.962
												c-1.216-2.198-1.537-4.773-0.966-7.722l0.588-3.037l8.086,1.564l-0.677,3.499c-0.52,2.685,0.698,4.313,3.652,4.885
												c2.954,0.571,4.7-0.529,5.236-3.302c0.332-1.717,0.114-3.369-0.655-4.956c-0.769-1.587-2.373-3.576-4.814-5.966
												c-3.022-3.004-5.036-5.654-6.043-7.95c-1.008-2.295-1.265-4.719-0.771-7.273c0.553-2.86,1.773-5.068,3.66-6.621
												c1.886-1.553,4.363-2.329,7.428-2.33l0.779-4.027l6.997,1.354l-0.779,4.027c2.903,1.109,4.952,2.751,6.145,4.921
												c1.193,2.173,1.504,4.733,0.934,7.681l-0.255,1.32l-8.084-1.564l0.345-1.782c0.528-2.729-0.635-4.369-3.485-4.921
												c-2.851-0.552-4.531,0.493-5.042,3.134c-0.306,1.584-0.072,3.148,0.706,4.691c0.776,1.544,2.381,3.533,4.813,5.966
												c3.013,3.049,5.022,5.732,6.025,8.05c1.003,2.317,1.25,4.796,0.739,7.438c-0.579,2.994-1.845,5.294-3.796,6.903
												c-1.951,1.608-4.481,2.386-7.588,2.333l-0.894,4.622l-6.997-1.354L598.589,526.368z"/>
										</g>
									</g>
								</g>
							</g>
						</g>
					</g>
					<g>
						<g>
							<g>
								<g>
									<g>
										<g>
											<g>
												<g>
													<path style="fill:#FFF9EE;" d="M587.976,469.794c2.229,3.209,3.052,6.736,2.882,10.508l0,0
														c3.055-2.219,6.467-3.483,10.373-3.39l0,0c-2.229-3.209-3.06-6.741-2.891-10.512l0,0
														C595.286,468.617,591.882,469.886,587.976,469.794z"/>
												</g>
											</g>
										</g>
									</g>
								</g>
							</g>
						</g>
						<g>
							<g>
								<g>
									<g>
										<g>
											<g>
												<g>
													<path style="fill:#FFF9EE;" d="M607.703,537.106c1.295,1.865,1.773,3.914,1.675,6.106l0,0
														c1.775-1.289,3.758-2.024,6.028-1.97l0,0c-1.295-1.865-1.778-3.917-1.68-6.109l0,0
														C611.951,536.422,609.973,537.16,607.703,537.106z"/>
												</g>
											</g>
										</g>
									</g>
								</g>
							</g>
						</g>
					</g>
				</g>
			</g>
			<g>
				<g>
					<g>
						<g>
							<g>
								<rect x="659.57" y="535.405" style="fill:#FFC457;" width="90.673" height="17.55"/>
							</g>
						</g>
						<g>
							<g>
								<rect x="678.663" y="516.006" style="fill:#FFC457;" width="90.673" height="17.55"/>
							</g>
						</g>
						<g>
							<g>
								<rect x="659.631" y="496.669" style="fill:#FFC457;" width="90.673" height="17.55"/>
							</g>
						</g>
						<g>
							<g>
								<g>
									<g>
										<g>
											<g>
												<rect x="739.802" y="496.669" style="fill:#7C4A4A;" width="1.909" height="17.549"/>
											</g>
										</g>
									</g>
								</g>
							</g>
						</g>
						<g>
							<g>
								<g>
									<g>
										<g>
											<g>
												<rect x="730.256" y="496.669" style="fill:#7C4A4A;" width="1.909" height="17.549"/>
											</g>
										</g>
									</g>
								</g>
							</g>
						</g>
						<g>
							<g>
								<g>
									<g>
										<g>
											<g>
												<rect x="701.615" y="496.669" style="fill:#7C4A4A;" width="1.909" height="17.549"/>
											</g>
										</g>
									</g>
								</g>
							</g>
						</g>
						<g>
							<g>
								<g>
									<g>
										<g>
											<g>
												<rect x="682.522" y="496.669" style="fill:#7C4A4A;" width="1.909" height="17.549"/>
											</g>
										</g>
									</g>
								</g>
							</g>
						</g>
						<g>
							<g>
								<g>
									<rect x="758.835" y="516.007" style="fill:#7C4A4A;" width="1.909" height="17.55"/>
								</g>
							</g>
						</g>
						<g>
							<g>
								<g>
									<g>
										<g>
											<g>
												<rect x="749.288" y="516.007" style="fill:#7C4A4A;" width="1.909" height="17.55"/>
											</g>
										</g>
									</g>
								</g>
							</g>
						</g>
						<g>
							<g>
								<g>
									<rect x="720.648" y="516.007" style="fill:#7C4A4A;" width="1.909" height="17.55"/>
								</g>
							</g>
						</g>
						<g>
							<g>
								<g>
									<g>
										<g>
											<g>
												<rect x="711.102" y="516.007" style="fill:#7C4A4A;" width="1.909" height="17.55"/>
											</g>
										</g>
									</g>
								</g>
							</g>
						</g>
						<g>
							<g>
								<g>
									<rect x="701.555" y="535.404" style="fill:#7C4A4A;" width="1.909" height="17.55"/>
								</g>
							</g>
						</g>
						<g>
							<g>
								<g>
									<rect x="682.461" y="535.404" style="fill:#7C4A4A;" width="1.909" height="17.55"/>
								</g>
							</g>
						</g>
						<g>
							<g>
								<g>
									<rect x="672.915" y="535.404" style="fill:#7C4A4A;" width="1.909" height="17.55"/>
								</g>
							</g>
						</g>
						<g>
							<g>
								<g>
									<g>
										<g>
											<g>
												<rect x="659.62" y="514.117" style="fill:#7C4A4A;" width="90.187" height="1.909"/>
											</g>
										</g>
									</g>
								</g>
							</g>
						</g>
						<g>
							<g>
								<g>
									<rect x="678.724" y="533.638" style="fill:#7C4A4A;" width="90.612" height="1.909"/>
								</g>
							</g>
						</g>
					</g>
					<g>
						<g>
							<g>
								<g>
									<g>
										<g>
											<g>
												<path style="fill:#FFF9EE;" d="M685.633,522.133c3.534,1.795,5.965,4.55,7.627,8.001l0,0
													c1.662-3.451,4.103-6.221,7.636-8.016l0,0c-3.534-1.795-5.974-4.55-7.636-8l0,0
													C691.598,517.568,689.167,520.338,685.633,522.133z"/>
											</g>
										</g>
									</g>
								</g>
							</g>
						</g>
					</g>
					<g>
						<g>
							<g>
								<g>
									<g>
										<g>
											<g>
												<path style="fill:#FFF9EE;" d="M716.277,544.859c2.024,1.028,3.417,2.606,4.369,4.583l0,0
													c0.952-1.977,2.35-3.563,4.374-4.591l0,0c-2.024-1.028-3.422-2.606-4.374-4.583l0,0
													C719.694,542.244,718.301,543.831,716.277,544.859z"/>
											</g>
										</g>
									</g>
								</g>
							</g>
						</g>
					</g>
					<g>
						<g>
							<g>
								<g>
									<g>
										<g>
											<g>
												<path style="fill:#FFF9EE;" d="M735.431,506.185c2.024,1.028,3.417,2.606,4.369,4.583l0,0
													c0.952-1.976,2.35-3.563,4.374-4.591l0,0c-2.024-1.028-3.422-2.606-4.374-4.583l0,0
													C738.848,503.57,737.455,505.157,735.431,506.185z"/>
											</g>
										</g>
									</g>
								</g>
							</g>
						</g>
					</g>
				</g>
				<g>
					<g>
						<g>
							<rect x="768.382" y="516.007" style="fill:#7C4A4A;" width="1.909" height="19.54"/>
						</g>
					</g>
				</g>
			</g>
		</g>
		<g>
			<path style="fill:#7C4A4A;" d="M328.386,395.91c0,0,77.952,10.562,89.482,14.683c13.7,4.896,82.177,83.406,82.177,83.406
				l-30.242,26.606l-75.248-67.755l-26.381,4.268l-34.458-5.38c0,0-18.526-6.442-23.871-6.829
				c-16.765-1.215-45.212,8.689-57.91-15.304l61.936-42.946L328.386,395.91z"/>
		</g>
		<g>
			<g>
				<g>
					<g>
						<g>
							<path style="fill:#FCB47E;" d="M193.911,289.702c4.395-0.362,7.261-0.294,7.998-0.349c0.929-0.069,1.786-1.128,3.25-1.826
								c3.368-1.606,9.865-4.115,14.405-3.143c0.584,0.122,0.645,0.857-0.208,1.092c-1.528,0.453-4.142,0.843-4.024,1.247
								c0.28,0.833,7.302-1.568,7.755,0.26c0.337,1.379-8.18,2.146-8.117,2.559c0.124,0.827,7.576-1.458,7.964,0.323
								c0.369,1.691-6.635,1.249-6.691,1.858c-0.057,0.631,5.472-0.171,5.773,0.963c0.457,1.717-8.666,1.783-8.859,2.498
								c-0.365,1.13,4.311,1.163,4.111,2.633c-0.164,1.393-6.214,0.527-7.398,0.429c-2.735-0.226-3.981-1.613-7.249-0.026
								c-1.795,0.872-3.578,1.742-5.353,2.633L193.911,289.702z"/>
						</g>
					</g>
				</g>
			</g>
		</g>
		<g>
			<g>
				<g>
					<g>
						<g>
							<path style="fill:#FCB47E;" d="M260.956,321.211c-12.069-6.988-16.479-14.995-16.479-14.995l-20.886,3.637
								c0,0,6.685,12.575,5.579,24.512c-0.755,8.149,11.535,14.761,30.298,14.158C278.231,347.921,266.443,324.388,260.956,321.211z
								"/>
						</g>
					</g>
				</g>
			</g>
		</g>
		<g>
			<g>
				<path style="fill:#5E3B3B;" d="M485.079,507.29l-1.002,0.88c-12.804-14.532-60.278-67.395-78.655-73.317
					c-5.482-1.769-17.826-1.329-32.113-0.828c-25.434,0.9-57.066,2.015-76.508-7.22c0,0,0.716-0.798,0.982-1.012
					c19.175,8.887,50.368,7.783,75.475,6.903c15.013-0.532,26.866-0.951,32.573,0.89C424.791,439.69,472.152,492.564,485.079,507.29
					z"/>
			</g>
		</g>
		<g>
			<g>
				<path style="fill:#5E3B3B;" d="M329.65,396.942c-0.757,0.021-1.503,0.031-2.229,0.031c-6.78,0-12.119-0.92-12.722-1.033
					c0.194-0.419,0.378-0.839,0.552-1.258c1.36,0.225,6.361,0.992,12.497,0.961l0.634,0.399c0,0,0.43,0.031,1.237,0.102
					L329.65,396.942z"/>
			</g>
		</g>
		<g>
			<path style="fill:#FFFFFF;" d="M246.924,433.403c0,0,56.684,2.13,72.126-49.067c0,0-23.089-10.346-35.265-51.608
				c0,0-7.528-25.806-23.938-24.039l-8.604,5.464c0,0,7.854,6.506,5.279,10.331c-3.186,4.734-23.595-2.208-23.595-2.208
				s-10.385-2.768-17.154-0.13c0,0,12.786,31.829-14.144,41.194C201.629,363.341,229.24,392.125,246.924,433.403z"/>
		</g>
		<g>
			<g>
				<path style="fill:#C4E8E8;" d="M275.281,439.341c-37.106-15.772-63.03-78.872-63.288-79.508l1.233-0.499
					c0.255,0.631,25.975,63.227,62.576,78.784L275.281,439.341z"/>
			</g>
		</g>
		<g>
			<g>
				<path style="fill:#FFFFFF;" d="M284.412,334.786l-26.558-24.855c0.068-0.123,10.073-14.029,13.495-21.837
					c5.848-13.343,0.95-24.595-10.309-12.077c-3.573,3.972-10.8,11.908-10.8,11.908l-16.91-11.898c0,0,7.527-10.793,11.787-15.666
					c15.841-18.118,29.533-22.394,42.015-17.877c6.333,2.292,10.953,6.924,13.358,13.396c3.965,10.669,3.729,26.004-3.069,48.39
					C292.585,320.195,284.412,334.786,284.412,334.786z"/>
			</g>
		</g>
		<g>
			<g>
				<path style="fill:#5E3B3B;" d="M300.902,427.07l-0.399,1.268c-3.743-1.207-6.842-3.385-8.212-4.449
					c-0.01,0-0.031-0.01-0.041-0.021l1.104-0.839c0.02,0.021,0.041,0.031,0.072,0.061
					C294.848,424.146,297.65,426.017,300.902,427.07z"/>
			</g>
		</g>
		<g>
			<g>
				<g>
					<g>
						<g>
							<path style="fill:#FCB47E;" d="M243.426,271.303c0,0,20.57,32.385,10.426,36.83c-10.144,4.445-21.799,3.558-24.867,2.05
								c-3.068-1.508-7.727-12.054-7.727-12.054s-7.426-14.446-2.298-19.911C224.089,272.753,235.72,262.183,243.426,271.303z"/>
						</g>
					</g>
				</g>
			</g>
		</g>
		<g>
			<g>
				<path style="fill:#5E3B3B;" d="M217.317,307.577c3.532,2.897,7.006,5.728,7.006,5.728c2.804-1.692,6.044-7.062,5.315-10.526
					c0,0,9.063-4.724,4.636-16.521c0,0,16.408-6.567,11.003-20.928c-2.669-7.109-15.649-7.595-24.226-1.202
					c-11.001,8.199-13.056,19.98-13.056,19.98C200.289,290.594,212.786,303.861,217.317,307.577z"/>
			</g>
		</g>
		<g>
			<g>
				<g>
					<g>
						<path style="fill:#FCB47E;" d="M227.019,301.529c0.919,2.254,3.492,3.336,5.746,2.416c2.254-0.92,3.336-3.492,2.416-5.746
							c-0.919-2.254-3.492-3.336-5.746-2.416C227.181,296.702,226.099,299.275,227.019,301.529z"/>
					</g>
				</g>
			</g>
		</g>
		<g>
			<g>
				<path style="fill:#C4E8E8;" d="M284.267,336.509c-0.028-0.166-2.878-16.671-12.783-23.459c-3.912-2.681-8.449-3.51-13.494-2.467
					l-0.269-1.302c5.412-1.123,10.295-0.22,14.519,2.675c10.374,7.113,13.223,23.636,13.339,24.336L284.267,336.509z"/>
			</g>
		</g>
		<g>
			<path style="fill:#5E3B3B;" d="M231.839,288.322l-0.339-1.255c0.095-0.026,9.503-2.611,13.979-7.69
				c1.951-2.214,2.681-5.189,2.056-8.376c-0.694-3.538-2.991-6.743-5.852-8.165l0.579-1.164c3.21,1.596,5.78,5.16,6.548,9.08
				c0.705,3.593-0.132,6.961-2.355,9.485C241.717,285.611,232.24,288.214,231.839,288.322z"/>
		</g>
		<g>
			<g>
				<path style="fill:#C4E8E8;" d="M252.061,327.45c-7.908,0.795-21.562-4.792-23.502-5.607l0.515-1.226
					c6.519,2.738,24.053,8.714,26.864,3.548c1.643-3.019-2.172-6.819-2.21-6.857l0.93-0.95c0.188,0.184,4.572,4.541,2.448,8.442
					C256.221,326.428,254.389,327.216,252.061,327.45z"/>
			</g>
		</g>
		<g>
			<path style="fill:#683E3E;" d="M480.855,511.013l-11.055,9.726l-37.022-33.34l-38.228-34.414l-26.375,4.265l-34.454-5.379
				c0,0-18.531-6.443-23.88-6.832c-2.045-0.153-4.265-0.133-6.607-0.031l-8.946-14.309c0,0,22.936-0.546,49.742,10.009
				c6.473,2.549,17.016,6.441,27.286,6.354c11.721-0.099,24.764-6.278,30.821-4.42c8.088,2.481,15.534,11.855,25.123,23.932
				c9.702,12.219,21.254,26.75,33.226,37.846C468.983,512.296,480.855,511.013,480.855,511.013z"/>
		</g>
		<g>
			<path style="fill:#FFC457;" d="M425.241,481.05c-13.221,45.782-38.306,65.677-49.502,72.556
				c-0.329,0.202-0.703,0.303-1.088,0.303H212.322c-0.386,0-0.759-0.101-1.088-0.303c-12.588-7.735-42.748-31.937-53.848-90.88
				c-2.516-13.356-4.214-28.605-4.725-46.011c-1.012-34.587,5.492-57.854,15.105-73.48c0,0,14.379,68.572,52.464,80.056
				c30.957,9.348,65.463-2.669,97.227,11.107c8.205,3.558,15.392,9.177,21.111,16.028c5.932,7.106,8.884,14.829,17.446,19.646
				c9.778,5.501,22.617,5.185,33.591,5.351c9.437,0.142,18.841-0.823,28.091-2.621C422.492,471.869,426.596,476.358,425.241,481.05z
				"/>
		</g>
		<g>
			<g>
				<g>
					<g>
						<g>
							<g>
								<g>
									<path style="fill:#FCB47E;" d="M445.971,539.142l-6.914-27.064l24.273,11.064l1.728,10.662c0,0-0.324,2.843-6.757,6.75
										C451.939,544.418,445.971,539.142,445.971,539.142z"/>
								</g>
							</g>
						</g>
					</g>
				</g>
			</g>
			<g>
				<g>
					<g>
						<g>
							<g>
								<g>
									<g>
										<g>
											<path style="fill:#4F3737;" d="M440.225,553.074l52.191,0.877c1.818,0.031,3.298-1.485,3.189-3.3
												c-0.001-0.018-0.002-0.037-0.003-0.055c-0.028-0.408-0.073-0.811-0.122-1.231c-0.171-1.385-0.515-2.787-1.152-3.661
												c-2.423-3.325-7.193-4.901-15.706-8.446c-5.339-2.229-9.834-5.139-11.836-6.5c-0.638-0.441-1.487-0.349-2.062,0.183
												c-10.496,9.915-16.786,7.664-18.618,3.467c-1.392-3.2-3.461-2.574-4.039-1.653c-1.791,2.884-2.895,11.379-3.34,15.647
												c-0.062,0.467-0.111,0.886-0.143,1.23c-0.072,0.796-0.114,1.275-0.114,1.275
												C438.252,552.023,439.096,553.045,440.225,553.074z"/>
										</g>
									</g>
								</g>
							</g>
						</g>
					</g>
				</g>
				<g>
					<g>
						<g>
							<g>
								<path style="fill:#FFFFFF;" d="M478.386,538.82c0.438-0.753,0.645-1.356,0.666-1.42l-0.86-0.286
									c-0.011,0.037-1.246,3.624-4.262,4.015l0.116,0.897C476.284,541.739,477.657,540.072,478.386,538.82z"/>
							</g>
						</g>
					</g>
					<g>
						<g>
							<g>
								<path style="fill:#FFFFFF;" d="M482.857,540.947c0.438-0.753,0.644-1.355,0.665-1.419l-0.86-0.286
									c-0.01,0.036-1.246,3.623-4.261,4.014l0.116,0.897C480.756,543.865,482.128,542.199,482.857,540.947z"/>
							</g>
						</g>
					</g>
					<g>
						<g>
							<g>
								<path style="fill:#FFFFFF;" d="M457.025,540.836l-0.3-0.854c-0.084,0.029-8.477,2.88-11.811-2.7l-0.778,0.464
									C447.85,543.963,456.933,540.869,457.025,540.836z"/>
							</g>
						</g>
					</g>
				</g>
				<g>
					<g>
						<g>
							<g>
								
									<rect x="460.909" y="534.697" transform="matrix(0.0275 -0.9996 0.9996 0.0275 -101.0244 995.9713)" style="fill:#FFFFFF;" width="0.905" height="30.418"/>
							</g>
						</g>
					</g>
					<g>
						<g>
							<g>
								
									<rect x="483.612" y="546.944" transform="matrix(0.0275 -0.9996 0.9996 0.0275 -79.5725 1019.2901)" style="fill:#FFFFFF;" width="0.905" height="7.193"/>
							</g>
						</g>
					</g>
				</g>
			</g>
		</g>
		<g>
			<path style="fill:#8ED1D0;" d="M590.475,368.374H456.132c-5.941,0-10.756-4.816-10.756-10.756v-90.342
				c0-5.94,4.816-10.756,10.756-10.756h134.344c5.941,0,10.756,4.816,10.756,10.756v90.342
				C601.232,363.559,596.416,368.374,590.475,368.374z"/>
			<g>
				<g>
					<g>
						<polygon style="fill:#5E3B3B;" points="471.943,324.909 470.853,323.233 507.214,299.591 522.109,308.876 569.891,278.75 
							570.958,280.442 522.115,311.238 507.236,301.961 						"/>
					</g>
					<g>
						<g>
							<polygon style="fill:#5E3B3B;" points="568.089,277.532 574.066,277.299 571.28,282.593 							"/>
						</g>
					</g>
				</g>
				<g>
					<g>
						<rect x="470.642" y="333.525" style="fill:#FF6B57;" width="12.289" height="14.069"/>
					</g>
					<g>
						<rect x="493.901" y="318.093" style="fill:#FEFEFE;" width="12.289" height="29.501"/>
					</g>
					<g>
						<rect x="517.159" y="326.822" style="fill:#FF6B57;" width="12.289" height="20.772"/>
					</g>
					<g>
						<rect x="540.418" y="312.568" style="fill:#FEFEFE;" width="12.289" height="35.026"/>
					</g>
					<g>
						<rect x="563.676" y="295.809" style="fill:#FEFEFE;" width="12.289" height="51.785"/>
					</g>
				</g>
				<g>
					<polygon style="fill:#5E3B3B;" points="586.662,347.967 458.945,347.967 458.945,283.766 460.945,283.766 460.945,345.967 
						586.662,345.967 					"/>
				</g>
			</g>
		</g>
		<g>
			<g>
				<path style="fill:#FBA937;" d="M350.01,553.975H211.732c-12.272-7.394-43.096-31.448-54.346-91.183
					c16.455,21.569,32.43,43.781,62.64,45.858c44.078,3.017,63.857-8.192,104.356,23.859
					C332.952,539.289,350.01,553.975,350.01,553.975z"/>
			</g>
		</g>
		<g>
			<g>
				<path style="fill:#F98B38;" d="M308.026,554.577c-1.281-0.942-2.622-1.828-3.987-2.632c-11.759-6.927-25.507-9.164-38.612-10.55
					c-2.551-0.269-5.109-0.512-7.669-0.754c-10.83-1.025-22.029-2.085-32.609-5.319c-25.16-7.691-43.295-26.512-54.078-40.944
					c-3.366-4.507-6.568-9.264-9.789-14.544l1.28-0.781c3.196,5.24,6.372,9.959,9.71,14.427
					c10.649,14.254,28.543,32.835,53.314,40.409c10.434,3.189,21.556,4.242,32.312,5.26c2.565,0.242,5.129,0.485,7.685,0.755
					c13.273,1.404,27.21,3.678,39.216,10.749c1.408,0.83,2.793,1.744,4.115,2.718L308.026,554.577z"/>
			</g>
			<g>
				<path style="fill:#F98B38;" d="M333.048,554.347c-4.703-7.503-12.761-13.698-22.107-16.998
					c-12.873-4.543-26.794-4.102-39.919-2.951c-3.438,0.302-6.944,0.7-10.335,1.085c-9.95,1.127-20.239,2.295-30.359,1.241
					l0.155-1.492c9.958,1.039,20.165-0.12,30.035-1.24c3.4-0.386,6.916-0.784,10.374-1.088c13.293-1.167,27.407-1.607,40.549,3.031
					c9.661,3.41,18,9.831,22.879,17.615L333.048,554.347z"/>
			</g>
		</g>
		<g>
			<path style="fill:#FFE9AB;" d="M315.085,445.048c9.545,3.978,18.027,11.537,21.016,21.436c0.883,2.926,1.055,6.607-1.33,8.518
				c-1.901,1.523-4.762,1.235-6.876,0.025c-2.114-1.21-3.678-3.162-5.291-4.987c-12.743-14.413-30.297-19.98-50.142-20.894
				c-3.357-0.155-16.066-0.509-14.719-7.5C259.017,435.037,305.541,441.07,315.085,445.048z"/>
		</g>
		<g style="opacity:0.71;">
			<g>
				<polygon style="fill:#FFFFFF;" points="690.421,421.986 665.468,444.669 666.905,446.254 691.858,423.57 				"/>
			</g>
			<g>
				
					<rect x="670.522" y="442.727" transform="matrix(0.6488 -0.7609 0.7609 0.6488 -98.598 673.954)" style="fill:#FFFFFF;" width="20.682" height="2.141"/>
			</g>
		</g>
		<g style="opacity:0.71;">
			<g>
				<polygon style="fill:#FFFFFF;" points="599.734,99.223 574.781,121.907 576.219,123.492 601.172,100.808 				"/>
			</g>
			<g>
				
					<rect x="579.835" y="119.965" transform="matrix(0.6488 -0.761 0.761 0.6488 115.1721 491.6142)" style="fill:#FFFFFF;" width="20.682" height="2.141"/>
			</g>
		</g>
		<g style="opacity:0.71;">
			<g>
				<polygon style="fill:#FFFFFF;" points="362.177,323.6 337.224,346.284 338.661,347.869 363.615,325.185 				"/>
			</g>
			<g>
				
					<rect x="342.278" y="344.342" transform="matrix(0.6488 -0.761 0.761 0.6488 -139.0045 389.6445)" style="fill:#FFFFFF;" width="20.682" height="2.141"/>
			</g>
		</g>
		<g style="opacity:0.77;">
			<g>
				<g>
					<g>
						<polygon style="fill:#FFFFFF;" points="452.481,84.032 445.618,95.92 459.345,95.92 						"/>
					</g>
				</g>
			</g>
		</g>
		<g style="opacity:0.77;">
			<g>
				<g>
					<g>
						<path style="fill:#FFFFFF;" d="M703.14,195.837h-16.325l8.162-14.139L703.14,195.837z M689.413,194.337h11.13l-5.565-9.639
							L689.413,194.337z"/>
					</g>
				</g>
			</g>
		</g>
		<g style="opacity:0.77;">
			<g>
				<g>
					<g>
						<path style="fill:#FFFFFF;" d="M779.707,329.566h-16.325l8.163-14.138L779.707,329.566z M765.979,328.066h11.13l-5.564-9.638
							L765.979,328.066z"/>
					</g>
				</g>
			</g>
		</g>
		<g style="opacity:0.77;">
			<g>
				<g>
					<g>
						<path style="fill:#FFFFFF;" d="M137.419,339.288h-15.46l7.73-13.389L137.419,339.288z M123.692,338.288h11.995l-5.998-10.389
							L123.692,338.288z"/>
					</g>
				</g>
			</g>
		</g>
		<g style="opacity:0.77;">
			<g>
				<g>
					<g>
						<polygon style="fill:#FFFFFF;" points="249.394,163.016 242.53,174.904 256.258,174.904 						"/>
					</g>
				</g>
			</g>
		</g>
		<g>
			<g>
				<path style="fill:#7C4A4A;" d="M468.102,523.96l-12.252-0.368l-28.492-0.849c0,0-3.59-20.628-6.331-36.623
					c-0.706-4.111-1.35-7.916-1.871-10.984l48.496,43.526L468.102,523.96z"/>
			</g>
			<g>
				<path style="fill:#683E3E;" d="M468.102,523.96l-12.252-0.368l-34.823-37.471c-0.706-4.111-1.35-7.916-1.871-10.984
					l48.496,43.526L468.102,523.96z"/>
			</g>
		</g>
		<g>
			<path style="fill:#FFFFFF;" d="M201.629,363.341c0,0-36.092-11.954-55.876-39.31c-6.859-9.485-3.904-17.771-1.818-21.669
				c5.557-10.383,17.385-14.672,44.119-17.985c7.231-0.896,14.333-0.978,14.333-0.978l2.418,17.835c0,0-32.227,4.702-31.099,10.343
				c1.516,7.577,28.758,10.542,42.067,10.569C226.523,336.733,223.591,358.992,201.629,363.341z"/>
		</g>
		<g>
			<g>
				<path style="fill:#C4E8E8;" d="M206.125,364.459l-0.577-1.199c0.102-0.048,10.248-5.051,13.669-15.766
					c2.374-7.439,1.02-15.858-4.027-25.028l1.165-0.641c5.232,9.509,6.62,18.286,4.123,26.089
					C216.875,359.177,206.563,364.249,206.125,364.459z"/>
			</g>
		</g>
		<g>
			<path style="fill:#F98B38;" d="M400.097,465.193c-26.361-7.385-59.388-11.483-59.719-11.524l0.183-1.488
				c0.332,0.04,33.472,4.153,59.94,11.567L400.097,465.193z"/>
		</g>
		<g>
			<path style="fill:#F98B38;" d="M387.779,469.493c-12.962-6.481-42.476-10.016-42.773-10.051l0.176-1.49
				c1.222,0.145,30.072,3.602,43.268,10.199L387.779,469.493z"/>
		</g>
		<g>
			<path style="fill:#683E3E;" d="M432.778,487.399l-17.918-16.13c0,0,7.934-2.273,8.959-2.448
				c1.025-0.174,12.862,15.145,12.862,15.145L432.778,487.399z"/>
		</g>
		<g>
			
				<rect x="442.754" y="464.318" transform="matrix(0.6679 -0.7442 0.7442 0.6679 -222.5636 494.9908)" style="fill:#4F3737;" width="1.299" height="65.164"/>
		</g>
		<g>
			<g>
				<path style="fill:#C4E8E8;" d="M204.308,366.037l-0.732-1.11c0.063-0.042,6.325-4.264,9.414-12.98l1.253,0.443
					C210.998,361.548,204.579,365.859,204.308,366.037z"/>
			</g>
		</g>
		<g>
			<g>
				<path style="fill:#C4E8E8;" d="M284.438,332.845l-1.309-0.234c1.731-9.709-2.471-17.803-2.514-17.883l1.174-0.623
					C281.973,314.449,286.252,322.669,284.438,332.845z"/>
			</g>
		</g>
		<g>
			<g>
				<path style="fill:#4F3737;" d="M405.674,450.479c-4.929,2.669-8.693,3.191-10.227,3.283l-0.892-0.782l-2.002,0.328l1.882-0.784
					c0.041-0.021,4.029-2.066,6.341-6.177l1.156,0.644c-1.309,2.352-3.099,4.06-4.52,5.165c1.831-0.358,4.49-1.145,7.629-2.843
					L405.674,450.479z"/>
			</g>
		</g>
	</g>
</g>
</svg>
